<!--?xml version="1.0" encoding="UTF-8"?-->
<svg viewBox="0 0 1109.38 472.53" xmlns="http://www.w3.org/2000/svg" data-name="Layer 1" id="Layer_1">
  <defs>
    <style>
      .cls-1 {
        fill: #132f4d;
      }

      .cls-1, .cls-2 {
        stroke-width: 0px;
      }

      .cls-2 {
        fill: #ecb91e;
      }
    </style>
  </defs>
  <g>
    <path d="m11.16,467.88c-3.04-3.1-4.55-7.15-4.55-12.16v-2.44c0-.62.31-.93.93-.93h6.95c.62,0,.93.31.93.93v1.97c0,2.88.72,5.19,2.17,6.91,1.44,1.72,3.29,2.58,5.53,2.58s4.11-.83,5.59-2.48c1.47-1.66,2.21-3.84,2.21-6.53,0-1.81-.4-3.41-1.18-4.79-.79-1.37-1.82-2.61-3.1-3.71s-3.37-2.7-6.24-4.84c-3.2-2.38-5.7-4.41-7.51-6.1s-3.35-3.72-4.6-6.1-1.87-5.16-1.87-8.36c0-5.07,1.5-9.09,4.5-12.07,3-2.97,6.91-4.46,11.73-4.46s9.03,1.59,12.07,4.79c3.04,3.19,4.55,7.38,4.55,12.58v2.35c0,.62-.31.93-.93.93h-6.95c-.63,0-.94-.31-.94-.93v-2.54c0-2.82-.72-5.09-2.16-6.81-1.44-1.72-3.32-2.58-5.64-2.58-2.19,0-3.98.77-5.35,2.3-1.38,1.54-2.07,3.68-2.07,6.44,0,2.51.69,4.62,2.07,6.34,1.37,1.72,4.03,4.03,7.98,6.91,3.76,2.82,6.59,5.1,8.5,6.85,1.91,1.75,3.38,3.68,4.41,5.78,1.04,2.1,1.55,4.59,1.55,7.47,0,5.26-1.53,9.47-4.6,12.63-3.07,3.16-7.07,4.75-12.02,4.75s-8.93-1.55-11.97-4.65Z" class="cls-1"></path>
    <path d="m53.6,470.83v-63.85c0-.62.32-.94.94-.94h7.14c.62,0,.93.32.93.94v63.85c0,.62-.31.94-.93.94h-7.14c-.62,0-.94-.32-.94-.94Z" class="cls-1"></path>
    <path d="m105.5,406.04h7.04c.62,0,.94.32.94.94v63.85c0,.62-.32.94-.94.94h-8.07c-.5,0-.84-.25-1.03-.75l-15.96-42.91c-.06-.12-.16-.17-.28-.14-.13.03-.19.11-.19.24l.09,42.63c0,.62-.31.94-.93.94h-7.14c-.62,0-.94-.32-.94-.94v-63.85c0-.62.32-.94.94-.94h7.99c.5,0,.84.25,1.03.75l16.06,42.91c.06.19.15.27.28.24.13-.03.19-.15.19-.33v-42.63c0-.62.32-.94.94-.94Z" class="cls-1"></path>
    <path d="m132.76,468.02c-3.1-3-4.65-6.98-4.65-11.92v-34.37c0-4.95,1.55-8.93,4.65-11.93,3.1-3,7.18-4.5,12.25-4.5s9.17,1.5,12.3,4.5c3.13,3,4.7,7.01,4.7,12.02v3.94c0,.62-.32.94-.94.94h-7.14c-.62,0-.93-.32-.93-.94v-4.13c0-2.56-.74-4.63-2.21-6.2-1.47-1.56-3.4-2.35-5.78-2.35s-4.3.79-5.77,2.35c-1.48,1.57-2.21,3.64-2.21,6.2v34.56c0,2.57.73,4.63,2.21,6.2,1.47,1.57,3.39,2.35,5.77,2.35s4.31-.78,5.78-2.35,2.21-3.63,2.21-6.2v-10.33c0-.24-.13-.37-.37-.37h-7.14c-.62,0-.94-.31-.94-.94v-5.82c0-.62.32-.94.94-.94h15.59c.62,0,.94.32.94.94v17.37c0,4.94-1.57,8.92-4.7,11.92s-7.23,4.51-12.3,4.51-9.15-1.51-12.25-4.51Z" class="cls-1"></path>
    <path d="m202.29,470.93l-2.07-10.8c0-.12-.05-.22-.14-.28-.1-.06-.2-.09-.33-.09h-15.31c-.12,0-.24.03-.32.09-.1.06-.15.16-.15.28l-1.97,10.8c-.06.56-.41.84-1.03.84h-7.13c-.32,0-.55-.1-.71-.28-.16-.19-.2-.44-.15-.75l14-63.86c.12-.56.46-.84,1.03-.84h8.36c.62,0,.97.28,1.03.84l14.09,63.86v.19c0,.56-.28.84-.85.84h-7.32c-.57,0-.91-.28-1.03-.84Zm-16.43-18.32h12.49c.19,0,.28-.12.28-.37l-6.38-33.34c-.06-.12-.13-.19-.19-.19-.06,0-.12.06-.19.19l-6.29,33.34c0,.25.1.37.28.37Z" class="cls-1"></path>
    <path d="m253.65,411.16c2.98,3.47,4.46,8.03,4.46,13.66s-1.44,9.96-4.32,13.34c-2.88,3.38-6.67,5.06-11.36,5.06h-8.83c-.25,0-.37.13-.37.38v27.23c0,.62-.32.94-.94.94h-7.13c-.63,0-.94-.32-.94-.94v-63.95c0-.62.31-.93.94-.93h16.81c4.82,0,8.72,1.74,11.69,5.21Zm-6.9,21.88c1.57-1.97,2.35-4.65,2.35-8.03s-.78-6.18-2.35-8.22-3.64-3.05-6.2-3.05h-6.95c-.25,0-.37.13-.37.37v21.51c0,.25.12.37.37.37h6.95c2.56,0,4.63-.98,6.2-2.95Z" class="cls-1"></path>
    <path d="m275.7,467.83c-3.13-3.13-4.7-7.3-4.7-12.49v-32.77c0-5.2,1.57-9.37,4.7-12.54s7.26-4.74,12.39-4.74,9.38,1.57,12.54,4.74c3.16,3.16,4.74,7.34,4.74,12.54v32.77c0,5.19-1.57,9.36-4.74,12.49-3.16,3.13-7.34,4.7-12.54,4.7s-9.26-1.57-12.39-4.7Zm18.41-5.58c1.5-1.66,2.26-3.84,2.26-6.53v-33.61c0-2.69-.75-4.87-2.26-6.52-1.5-1.66-3.51-2.49-6.01-2.49s-4.4.83-5.87,2.49c-1.47,1.66-2.21,3.83-2.21,6.52v33.61c0,2.69.74,4.87,2.21,6.53,1.47,1.66,3.43,2.48,5.87,2.48s4.51-.83,6.01-2.48Z" class="cls-1"></path>
    <path d="m344.98,471.02l-8.63-27.98c-.06-.19-.19-.28-.37-.28h-6.57c-.25,0-.38.13-.38.38v27.7c0,.62-.31.94-.93.94h-7.14c-.62,0-.94-.32-.94-.94v-63.85c0-.62.32-.94.94-.94h16.81c3.2,0,6.01.79,8.46,2.35,2.44,1.57,4.33,3.77,5.68,6.62,1.35,2.85,2.02,6.09,2.02,9.72,0,3.94-.82,7.37-2.44,10.28-1.63,2.91-3.85,5.02-6.67,6.34-.19.19-.25.37-.19.56l9.58,28.83.1.37c0,.44-.28.66-.84.66h-7.33c-.56,0-.94-.25-1.13-.75Zm-15.96-56.81v21.03c0,.25.13.37.38.37h6.95c2.56,0,4.63-.98,6.2-2.95,1.56-1.97,2.35-4.59,2.35-7.85s-.79-6.05-2.35-8.03c-1.57-1.97-3.64-2.95-6.2-2.95h-6.95c-.25,0-.38.12-.38.37Z" class="cls-1"></path>
    <path d="m398.22,413.84h-21.12c-.25,0-.38.12-.38.37v20.38c0,.25.13.37.38.37h12.95c.62,0,.94.32.94.94v5.92c0,.62-.32.93-.94.93h-12.95c-.25,0-.38.13-.38.38v20.47c0,.25.13.38.38.38h21.12c.62,0,.94.31.94.93v5.92c0,.62-.32.94-.94.94h-29.58c-.62,0-.94-.32-.94-.94v-63.85c0-.62.32-.94.94-.94h29.58c.62,0,.94.32.94.94v5.92c0,.62-.32.94-.94.94Z" class="cls-1"></path>
    <path d="m439.4,467.88c-3.1-3.1-4.65-7.21-4.65-12.35v-33.34c0-5.13,1.55-9.23,4.65-12.29s7.18-4.6,12.25-4.6,9.25,1.53,12.35,4.6,4.65,7.17,4.65,12.29v1.51c0,.62-.32.93-.94.93l-7.14.38c-.62,0-.93-.32-.93-.94v-2.44c0-2.56-.74-4.63-2.21-6.2-1.47-1.56-3.4-2.35-5.78-2.35s-4.28.79-5.73,2.35c-1.44,1.57-2.16,3.64-2.16,6.2v34.56c0,2.57.72,4.63,2.16,6.2,1.44,1.57,3.35,2.35,5.73,2.35s4.31-.78,5.78-2.35,2.21-3.63,2.21-6.2v-2.44c0-.62.31-.93.93-.93l7.14.37c.62,0,.94.32.94.94v1.4c0,5.14-1.55,9.25-4.65,12.35-3.1,3.1-7.21,4.65-12.35,4.65s-9.15-1.55-12.25-4.65Z" class="cls-1"></path>
    <path d="m486.86,467.83c-3.13-3.13-4.7-7.3-4.7-12.49v-32.77c0-5.2,1.57-9.37,4.7-12.54s7.26-4.74,12.39-4.74,9.38,1.57,12.54,4.74c3.16,3.16,4.74,7.34,4.74,12.54v32.77c0,5.19-1.57,9.36-4.74,12.49-3.16,3.13-7.34,4.7-12.54,4.7s-9.26-1.57-12.39-4.7Zm18.41-5.58c1.5-1.66,2.26-3.84,2.26-6.53v-33.61c0-2.69-.75-4.87-2.26-6.52-1.5-1.66-3.51-2.49-6.01-2.49s-4.4.83-5.87,2.49c-1.47,1.66-2.21,3.83-2.21,6.52v33.61c0,2.69.74,4.87,2.21,6.53,1.47,1.66,3.43,2.48,5.87,2.48s4.51-.83,6.01-2.48Z" class="cls-1"></path>
    <path d="m558.58,406.04h7.04c.62,0,.94.32.94.94v63.85c0,.62-.32.94-.94.94h-8.07c-.5,0-.84-.25-1.03-.75l-15.96-42.91c-.06-.12-.16-.17-.28-.14-.13.03-.19.11-.19.24l.09,42.63c0,.62-.31.94-.93.94h-7.14c-.62,0-.94-.32-.94-.94v-63.85c0-.62.32-.94.94-.94h7.99c.5,0,.84.25,1.03.75l16.06,42.91c.06.19.15.27.28.24.13-.03.19-.15.19-.33v-42.63c0-.62.32-.94.94-.94Z" class="cls-1"></path>
    <path d="m612.45,413.84h-21.03c-.25,0-.38.12-.38.37v20.38c0,.25.13.37.38.37h12.86c.62,0,.94.32.94.94v5.92c0,.62-.32.93-.94.93h-12.86c-.25,0-.38.13-.38.38v27.7c0,.62-.31.94-.93.94h-7.14c-.62,0-.94-.32-.94-.94v-63.85c0-.62.32-.94.94-.94h29.48c.63,0,.94.32.94.94v5.92c0,.62-.31.94-.94.94Z" class="cls-1"></path>
    <path d="m656.77,413.84h-21.12c-.25,0-.38.12-.38.37v20.38c0,.25.13.37.38.37h12.95c.62,0,.94.32.94.94v5.92c0,.62-.32.93-.94.93h-12.95c-.25,0-.38.13-.38.38v20.47c0,.25.13.38.38.38h21.12c.62,0,.94.31.94.93v5.92c0,.62-.32.94-.94.94h-29.58c-.62,0-.94-.32-.94-.94v-63.85c0-.62.32-.94.94-.94h29.58c.62,0,.94.32.94.94v5.92c0,.62-.32.94-.94.94Z" class="cls-1"></path>
    <path d="m696.48,471.02l-8.63-27.98c-.06-.19-.19-.28-.37-.28h-6.57c-.25,0-.38.13-.38.38v27.7c0,.62-.31.94-.93.94h-7.14c-.62,0-.94-.32-.94-.94v-63.85c0-.62.32-.94.94-.94h16.81c3.2,0,6.01.79,8.46,2.35,2.44,1.57,4.33,3.77,5.68,6.62s2.02,6.09,2.02,9.72c0,3.94-.82,7.37-2.44,10.28-1.63,2.91-3.85,5.02-6.67,6.34-.19.19-.25.37-.19.56l9.58,28.83.1.37c0,.44-.28.66-.84.66h-7.33c-.56,0-.94-.25-1.13-.75Zm-15.96-56.81v21.03c0,.25.13.37.38.37h6.95c2.56,0,4.63-.98,6.2-2.95,1.56-1.97,2.35-4.59,2.35-7.85s-.79-6.05-2.35-8.03c-1.57-1.97-3.64-2.95-6.2-2.95h-6.95c-.25,0-.38.12-.38.37Z" class="cls-1"></path>
    <path d="m749.74,413.84h-21.12c-.25,0-.38.12-.38.37v20.38c0,.25.13.37.38.37h12.95c.62,0,.94.32.94.94v5.92c0,.62-.32.93-.94.93h-12.95c-.25,0-.38.13-.38.38v20.47c0,.25.13.38.38.38h21.12c.62,0,.94.31.94.93v5.92c0,.62-.32.94-.94.94h-29.58c-.62,0-.94-.32-.94-.94v-63.85c0-.62.32-.94.94-.94h29.58c.62,0,.94.32.94.94v5.92c0,.62-.32.94-.94.94Z" class="cls-1"></path>
    <path d="m791.9,406.04h7.04c.62,0,.94.32.94.94v63.85c0,.62-.32.94-.94.94h-8.07c-.5,0-.84-.25-1.03-.75l-15.96-42.91c-.06-.12-.16-.17-.28-.14-.13.03-.19.11-.19.24l.09,42.63c0,.62-.31.94-.93.94h-7.14c-.62,0-.94-.32-.94-.94v-63.85c0-.62.32-.94.94-.94h7.99c.5,0,.84.25,1.03.75l16.06,42.91c.06.19.15.27.28.24.13-.03.19-.15.19-.33v-42.63c0-.62.32-.94.94-.94Z" class="cls-1"></path>
    <path d="m819.16,467.88c-3.1-3.1-4.65-7.21-4.65-12.35v-33.34c0-5.13,1.55-9.23,4.65-12.29s7.18-4.6,12.25-4.6,9.25,1.53,12.35,4.6,4.65,7.17,4.65,12.29v1.51c0,.62-.32.93-.94.93l-7.14.38c-.62,0-.93-.32-.93-.94v-2.44c0-2.56-.74-4.63-2.21-6.2-1.47-1.56-3.4-2.35-5.78-2.35s-4.28.79-5.73,2.35c-1.44,1.57-2.16,3.64-2.16,6.2v34.56c0,2.57.72,4.63,2.16,6.2,1.44,1.57,3.35,2.35,5.73,2.35s4.31-.78,5.78-2.35,2.21-3.63,2.21-6.2v-2.44c0-.62.31-.93.93-.93l7.14.37c.62,0,.94.32.94.94v1.4c0,5.14-1.55,9.25-4.65,12.35-3.1,3.1-7.21,4.65-12.35,4.65s-9.15-1.55-12.25-4.65Z" class="cls-1"></path>
    <path d="m893.12,413.84h-21.12c-.25,0-.38.12-.38.37v20.38c0,.25.13.37.38.37h12.95c.62,0,.94.32.94.94v5.92c0,.62-.32.93-.94.93h-12.95c-.25,0-.38.13-.38.38v20.47c0,.25.13.38.38.38h21.12c.62,0,.94.31.94.93v5.92c0,.62-.32.94-.94.94h-29.58c-.62,0-.94-.32-.94-.94v-63.85c0-.62.32-.94.94-.94h29.58c.62,0,.94.32.94.94v5.92c0,.62-.32.94-.94.94Z" class="cls-1"></path>
    <path d="m934.34,467.83c-3.13-3.13-4.7-7.3-4.7-12.49v-32.77c0-5.2,1.57-9.37,4.7-12.54s7.26-4.74,12.39-4.74,9.38,1.57,12.54,4.74c3.16,3.16,4.74,7.34,4.74,12.54v32.77c0,5.19-1.57,9.36-4.74,12.49-3.16,3.13-7.34,4.7-12.54,4.7s-9.26-1.57-12.39-4.7Zm18.41-5.58c1.5-1.66,2.26-3.84,2.26-6.53v-33.61c0-2.69-.75-4.87-2.26-6.52-1.5-1.66-3.51-2.49-6.01-2.49s-4.4.83-5.87,2.49c-1.47,1.66-2.21,3.83-2.21,6.52v33.61c0,2.69.74,4.87,2.21,6.53,1.47,1.66,3.43,2.48,5.87,2.48s4.51-.83,6.01-2.48Z" class="cls-1"></path>
    <path d="m1006.05,406.04h7.04c.62,0,.94.32.94.94v63.85c0,.62-.32.94-.94.94h-8.07c-.5,0-.84-.25-1.03-.75l-15.96-42.91c-.06-.12-.16-.17-.28-.14-.13.03-.19.11-.19.24l.09,42.63c0,.62-.31.94-.93.94h-7.14c-.62,0-.94-.32-.94-.94v-63.85c0-.62.32-.94.94-.94h7.99c.5,0,.84.25,1.03.75l16.06,42.91c.06.19.15.27.28.24.13-.03.19-.15.19-.33v-42.63c0-.62.32-.94.94-.94Z" class="cls-1"></path>
    <path d="m1078.17,470.93l-2.07-10.8c0-.12-.05-.22-.14-.28-.1-.06-.2-.09-.33-.09h-15.31c-.12,0-.24.03-.32.09-.1.06-.15.16-.15.28l-1.97,10.8c-.06.56-.41.84-1.03.84h-7.13c-.32,0-.55-.1-.71-.28-.16-.19-.2-.44-.15-.75l14-63.86c.12-.56.46-.84,1.03-.84h8.36c.62,0,.97.28,1.03.84l14.09,63.86v.19c0,.56-.28.84-.85.84h-7.32c-.57,0-.91-.28-1.03-.84Zm-16.43-18.32h12.49c.19,0,.28-.12.28-.37l-6.38-33.34c-.06-.12-.13-.19-.19-.19-.06,0-.12.06-.19.19l-6.29,33.34c0,.25.1.37.28.37Z" class="cls-1"></path>
    <path d="m1100.13,470.83v-63.85c0-.62.32-.94.94-.94h7.14c.62,0,.93.32.93.94v63.85c0,.62-.31.94-.93.94h-7.14c-.62,0-.94-.32-.94-.94Z" class="cls-1"></path>
  </g>
  <g>
    <path d="m274.09,2.57v58.59H102.29c-30.29,0-43.7,16.38-43.7,39.72,0,20.36,10.43,39.73,49.66,39.73h78.45c91.36,0,112.72,50.65,112.72,98.81,0,56.61-30.29,98.31-106.76,98.31H5.96v-58.59h188.69c31.78,0,46.18-17.38,46.18-41.71,0-21.85-11.42-41.71-52.64-41.71h-77.96C20.86,195.73,0,145.58,0,98.9,0,43.29,29.8,2.57,104.28,2.57h169.82Z" class="cls-1"></path>
    <path d="m626.39,2.57v58.59h-129.6c-64.56,0-92.85,32.27-92.85,109.24s27.8,108.74,92.85,108.74h129.6v58.59h-129.6c-97.82,0-151.45-55.12-151.45-167.34S399.47,2.57,496.79,2.57h129.6Z" class="cls-1"></path>
    <path d="m832.46,59.46c7.59,0,12.81,3.44,15.65,11.3l97.23,266.84h62.13s-108.14-294.85-108.14-294.85C887.96,11.79,866.14,0,832.94,0c-33.68,0-55.49,11.79-67.35,42.75l-90.44,237.24c-10.6,27.81,9.94,57.61,39.69,57.61h0s155.19,0,155.19,0l-21.75-58.18h-91.36c-9.64,0-16.29-9.65-12.86-18.65l72.27-190.01c3.32-7.86,8.54-11.3,16.13-11.3Z" class="cls-2"></path>
    <path d="m1109.38,2.45v335.16h-55.97V2.45h55.97Z" class="cls-2"></path>
  </g>
</svg>