<!--?xml version="1.0" encoding="UTF-8"?-->
<svg viewBox="0 0 13.44 4.09" xmlns="http://www.w3.org/2000/svg" data-name="Layer 1" id="Layer_1">
  <defs>
    <style>
      .cls-1 {
        fill: #132f4d;
      }

      .cls-1, .cls-2 {
        stroke-width: 0px;
      }

      .cls-2 {
        fill: #ecb91e;
      }
    </style>
  </defs>
  <path d="m3.32.03v.71H1.24c-.37,0-.53.2-.53.48,0,.25.13.48.6.48h.95c1.11,0,1.37.61,1.37,1.2,0,.69-.37,1.19-1.29,1.19H.07v-.71h2.29c.39,0,.56-.21.56-.51,0-.26-.14-.51-.64-.51h-.94C.25,2.37,0,1.76,0,1.2,0,.52.36.03,1.26.03h2.06Z" class="cls-1"></path>
  <path d="m7.59.03v.71h-1.57c-.78,0-1.13.39-1.13,1.32s.34,1.32,1.13,1.32h1.57v.71h-1.57c-1.19,0-1.84-.67-1.84-2.03S4.84.03,6.02.03h1.57Z" class="cls-1"></path>
  <path d="m10.09.72c.09,0,.16.04.19.14l1.18,3.23h.75s-1.31-3.57-1.31-3.57C10.76.14,10.5,0,10.09,0s-.67.14-.82.52l-1.1,2.87c-.13.34.12.7.48.7h1.88s-.26-.71-.26-.71h-1.11c-.12,0-.2-.12-.16-.23l.88-2.3c.04-.1.1-.14.2-.14Z" class="cls-2"></path>
  <path d="m13.44.03v4.06h-.68V.03h.68Z" class="cls-2"></path>
</svg>